<?xml version="1.0" standalone="no"?>
<!DOCTYPE svg PUBLIC "-//W3C//DTD SVG 20010904//EN"
 "http://www.w3.org/TR/2001/REC-SVG-20010904/DTD/svg10.dtd">
<svg version="1.0" xmlns="http://www.w3.org/2000/svg"
 width="1899.000000pt" height="967.000000pt" viewBox="0 0 1899.000000 967.000000"
 preserveAspectRatio="xMidYMid meet">
<metadata>
Created by potrace 1.16, written by Peter Selinger 2001-2019
</metadata>
<g transform="translate(0.000000,967.000000) scale(0.100000,-0.100000)"
fill="#000000" stroke="none">
<path d="M0 5875 l0 -3795 705 0 705 0 1 828 c1 920 9 1376 24 1390 6 6 114
13 240 16 127 4 308 11 404 17 121 7 177 7 184 0 6 -6 8 -14 4 -17 -3 -4 -136
-11 -294 -16 -158 -5 -298 -12 -311 -14 -24 -5 -44 -41 -33 -61 3 -6 22 -29
41 -50 33 -35 219 -262 355 -433 220 -275 366 -441 381 -432 7 4 65 77 130
162 64 85 126 166 136 180 10 14 56 72 101 130 45 58 109 141 143 185 167 220
224 292 238 304 9 8 16 21 16 31 0 38 -18 40 -261 31 -129 -6 -283 -10 -344
-10 -60 -1 -147 -4 -192 -7 -57 -5 -83 -3 -83 4 0 6 5 14 10 17 12 8 619 33
885 37 l180 3 0 -120 c-1 -192 -15 -1001 -20 -1110 -2 -55 -7 -170 -10 -255
-10 -286 -26 -695 -28 -715 -2 -18 3 -20 58 -17 33 2 63 7 67 11 4 3 26 5 48
3 33 -3 40 -8 41 -26 1 -11 2 -30 3 -41 1 -20 10 -20 2891 -25 l2890 -5 2 -48
c3 -59 21 -95 67 -135 77 -67 185 -67 262 0 46 41 65 79 67 139 l2 49 4643 0
4642 0 -2 443 -3 442 -22 3 c-14 2 -23 10 -23 22 0 10 -7 20 -15 24 -8 3 -12
12 -9 21 4 8 1 22 -6 30 -11 13 -10 14 4 9 9 -3 16 -9 16 -13 1 -18 29 -41 44
-35 15 6 16 276 16 3325 l0 3319 -9495 0 -9495 0 0 -3795z m604 3464 c33 -15
52 -60 37 -88 -15 -27 -62 -51 -101 -51 l-30 0 0 -65 c0 -58 -2 -65 -20 -65
-19 0 -20 7 -20 134 l0 135 -27 4 c-16 2 9 5 54 6 45 0 93 -4 107 -10z m489
-101 c54 -89 67 -119 65 -145 -3 -32 -7 -27 -83 95 l-80 129 -5 -126 -6 -126
-2 137 c-2 133 -3 137 -24 141 -13 2 -3 5 22 5 l45 1 68 -111z m267 12 c34
-55 64 -100 66 -100 2 0 4 42 4 94 0 90 -1 95 -22 99 -13 2 27 4 87 4 61 1
102 -1 93 -4 -10 -2 -18 -6 -18 -8 0 -2 16 -32 36 -66 l37 -62 24 46 c13 26
26 47 28 47 3 0 -6 -22 -20 -50 -19 -38 -25 -65 -25 -115 0 -58 -2 -65 -20
-65 -18 0 -20 7 -20 55 0 48 -6 67 -46 135 -45 78 -47 80 -85 80 l-38 0 -3
-142 -3 -143 -90 142 -90 142 -75 4 c-72 3 -71 3 22 5 l96 2 62 -100z m894 90
c32 -12 51 -50 42 -83 -7 -29 -59 -57 -105 -57 l-31 0 0 -65 c0 -58 -2 -65
-20 -65 -19 0 -20 7 -20 134 0 132 0 135 -22 139 -13 2 12 5 54 6 42 0 88 -3
102 -9z m1025 -27 c0 -21 -3 -31 -6 -23 -14 37 -36 50 -85 50 l-48 0 0 -135
c0 -128 -1 -135 -20 -135 -19 0 -20 7 -20 135 l0 135 -60 -1 c-34 -1 -64 1
-67 5 -3 3 64 6 150 6 l157 0 -1 -37z m240 11 c27 -34 26 -50 -3 -79 l-23 -23
24 -19 c17 -13 26 -31 30 -63 3 -25 10 -51 16 -58 13 -17 6 -22 -21 -15 -21 5
-42 52 -42 95 0 27 -11 48 -26 48 -19 0 -18 16 1 24 18 7 21 76 3 94 -7 7 -25
12 -40 12 l-28 0 0 -129 c0 -126 1 -130 23 -134 12 -2 -9 -4 -48 -4 -38 0 -58
2 -42 4 l27 4 0 129 0 129 -27 4 c-16 2 13 5 64 6 88 1 92 0 112 -25z m8502
-136 l0 -23 11 23 c14 28 36 28 47 0 l8 -23 7 23 c7 21 36 32 36 13 0 -5 13
-4 29 2 44 16 81 -3 81 -43 0 -63 -98 -67 -111 -5 l-6 30 -7 -37 c-10 -47 -40
-52 -51 -10 l-8 27 -6 -25 c-12 -44 -43 -32 -57 23 -11 44 -11 47 7 47 13 0
19 -7 20 -22z m307 10 c9 -9 12 -9 12 0 0 7 9 12 20 12 11 0 20 -5 20 -12 0
-9 3 -9 12 0 7 7 21 12 32 12 20 0 20 0 -1 -22 l-22 -21 20 -29 20 -28 -20 0
c-11 0 -25 8 -30 18 -10 16 -10 16 -11 0 0 -29 -74 -25 -88 5 l-11 22 0 -22
c-1 -14 -7 -23 -16 -23 -11 0 -15 12 -15 50 0 50 0 50 33 50 18 0 38 -5 45
-12z m1249 -8 c3 -11 9 -20 13 -20 4 0 10 9 13 20 4 16 14 20 46 20 29 0 44
-5 48 -16 5 -15 7 -15 15 0 5 9 18 16 29 16 20 0 20 0 0 -29 -12 -16 -21 -39
-21 -50 0 -12 -6 -21 -15 -21 -9 0 -15 9 -15 23 0 12 -9 33 -20 47 l-20 25 0
-47 c0 -36 -4 -48 -15 -48 -8 0 -15 8 -15 17 0 15 -2 14 -15 -3 -15 -19 -15
-19 -30 0 -13 17 -15 18 -15 3 0 -9 -7 -17 -15 -17 -11 0 -15 12 -15 50 0 44
2 50 21 50 12 0 23 -8 26 -20z m288 -7 c0 -12 4 -25 8 -29 4 -4 7 0 7 9 0 44
77 65 103 27 13 -19 13 -19 30 0 23 27 72 26 91 -2 l16 -22 0 22 c0 15 6 22
20 22 11 0 20 -5 20 -12 0 -9 3 -9 12 0 7 7 21 12 32 12 20 0 20 0 -1 -22
l-22 -21 20 -29 20 -28 -20 0 c-11 0 -25 8 -30 18 -10 16 -10 16 -11 0 0 -11
-8 -18 -20 -18 -14 0 -20 7 -20 22 l0 22 -16 -22 c-19 -28 -68 -29 -91 -2 -17
19 -17 19 -30 0 -17 -24 -65 -27 -86 -5 -13 13 -16 13 -27 0 -7 -8 -28 -15
-46 -15 l-34 0 0 51 0 50 38 -3 c30 -2 37 -7 37 -25z m905 -13 c0 -32 4 -40
19 -40 14 0 17 6 14 23 -10 50 70 79 100 37 13 -19 13 -19 31 1 12 14 26 19
49 17 18 -2 30 -7 27 -13 -3 -5 -12 -9 -22 -8 -9 1 -22 -4 -29 -13 -10 -12 -9
-18 4 -31 9 -9 20 -13 24 -9 5 5 2 11 -4 13 -23 8 -14 23 13 23 22 0 25 -4 22
-27 -2 -23 -8 -29 -35 -31 -23 -2 -37 3 -49 17 -17 20 -18 20 -31 2 -10 -16
-26 -19 -88 -19 l-75 -1 0 50 c0 37 4 49 15 49 11 0 15 -11 15 -40z m-6719
-1436 c-34 -44 -104 -90 -161 -106 -86 -26 -177 -55 -275 -89 -49 -17 -110
-37 -135 -44 -25 -7 -53 -16 -62 -20 -10 -4 -18 -3 -18 2 0 10 58 33 83 33 9
0 17 7 17 15 0 18 5 19 -66 -4 -71 -23 -124 -35 -124 -27 0 3 22 12 49 20 26
8 57 19 67 24 11 5 42 17 69 25 51 15 447 153 520 180 56 22 59 21 36 -9z
m-155 -149 c-14 -13 -26 -28 -26 -33 0 -5 -28 -17 -62 -26 -35 -10 -74 -24
-88 -31 -14 -6 -60 -25 -104 -40 -92 -32 -138 -57 -185 -99 -23 -21 -30 -25
-23 -11 6 11 20 28 32 38 12 10 20 21 17 24 -8 8 -47 -16 -47 -29 0 -7 -6 -3
-14 7 -13 18 -11 20 23 32 20 7 41 11 48 8 6 -2 17 3 23 11 7 8 24 15 39 15
26 2 26 2 2 6 -20 4 -15 8 30 24 30 10 62 16 71 13 9 -3 26 4 37 15 12 12 27
21 34 21 8 0 16 3 20 6 5 5 180 70 196 73 2 1 -8 -10 -23 -24z m3539 -863 c50
-11 110 -30 135 -41 31 -14 66 -21 114 -21 l68 0 -17 -26 c-25 -39 0 -50 38
-18 45 38 93 54 161 54 113 -1 194 -61 216 -162 14 -63 4 -115 -35 -172 l-24
-36 97 -82 c53 -45 96 -86 94 -91 -2 -5 4 -7 13 -3 11 4 15 2 12 -6 -2 -7 -11
-12 -20 -12 -9 1 -14 -2 -11 -7 3 -5 15 -9 28 -9 12 0 28 -6 35 -12 9 -9 15
-10 18 -2 2 6 41 -8 96 -35 129 -65 198 -86 285 -86 39 0 72 -2 72 -5 0 -12
-60 -60 -74 -60 -9 0 -16 -6 -16 -14 0 -21 -21 -31 -31 -15 -8 12 -11 11 -20
-3 -5 -10 -19 -18 -30 -18 -11 0 -29 -5 -40 -10 -17 -10 -19 -7 -19 25 0 36
-6 40 -48 29 -22 -6 -22 -7 -5 -26 17 -19 17 -20 -2 -34 -10 -8 -24 -14 -31
-14 -6 0 -14 -7 -17 -15 -4 -8 -26 -17 -57 -21 -27 -4 -50 -10 -50 -15 0 -5
-8 -9 -17 -9 -10 0 -33 -9 -51 -20 -18 -11 -43 -20 -56 -20 -52 0 -88 -13 -98
-36 -6 -13 -17 -24 -25 -24 -7 0 -18 -11 -25 -24 -9 -20 -16 -24 -38 -20 -19
4 -35 -1 -57 -20 -17 -14 -42 -30 -57 -35 -14 -6 -26 -17 -26 -26 0 -8 -5 -15
-11 -15 -6 0 -33 -16 -59 -35 -64 -47 -110 -65 -165 -65 -28 0 -45 -4 -45 -12
0 -16 -51 -68 -67 -68 -7 0 -13 9 -13 19 0 29 -15 33 -36 10 -18 -20 -18 -21
-1 -34 9 -6 17 -18 17 -26 0 -17 -60 -79 -77 -79 -8 0 -11 -9 -7 -29 5 -23 2
-30 -15 -36 -12 -3 -25 -15 -31 -25 -11 -20 4 -30 46 -30 13 0 24 -4 24 -10 0
-6 -27 -10 -60 -10 -55 0 -75 -10 -50 -25 13 -8 13 -28 -1 -23 -6 2 -10 8 -9
13 2 10 -26 23 -51 24 -21 1 -34 -28 -19 -43 20 -20 9 -35 -37 -52 -66 -24
-70 -30 -45 -57 29 -31 28 -33 -13 -47 -19 -6 -35 -15 -35 -19 0 -4 17 -17 38
-29 20 -12 31 -22 25 -22 -7 0 -13 -7 -13 -15 0 -8 -7 -15 -15 -15 -8 0 -15 5
-15 10 0 6 -4 10 -9 10 -6 0 -11 -21 -13 -47 l-3 -48 -44 -3 c-26 -2 -47 1
-51 8 -4 7 -16 10 -26 7 -17 -4 -17 -6 4 -12 19 -6 22 -14 22 -56 0 -37 -4
-49 -15 -49 -8 0 -15 -6 -15 -14 0 -8 -16 -28 -35 -45 -20 -17 -31 -31 -25
-31 5 0 10 -9 10 -20 0 -11 -7 -20 -15 -20 -10 0 -15 11 -15 35 l0 35 -47 0
-48 0 3 165 c3 164 3 165 -22 190 -25 24 -28 25 -177 25 -120 0 -149 3 -142
13 5 6 16 28 23 47 8 19 21 46 29 60 15 23 41 87 41 102 0 4 -10 8 -22 10 -20
3 -25 12 -35 77 -7 41 -17 79 -23 85 -5 5 -10 16 -10 23 0 6 -10 27 -22 45
-16 23 -29 32 -45 30 -62 -9 -81 42 -65 171 6 45 9 83 7 85 -6 6 -124 -157
-154 -210 -38 -70 -71 -62 -71 17 0 36 32 82 148 212 l64 72 -7 53 c-8 63 -52
287 -66 340 -10 39 -15 82 -29 248 -4 58 -11 131 -15 162 l-7 56 48 8 c27 4
67 13 88 21 35 12 123 32 276 64 25 6 77 14 115 20 39 5 90 14 115 19 25 5
135 7 245 6 159 -3 218 -7 290 -24z m-6813 -31 l-44 -29 80 -3 c68 -4 84 -8
106 -28 34 -32 37 -108 6 -136 -19 -18 -19 -18 10 -52 47 -54 37 -127 -22
-163 -28 -17 -51 -20 -150 -20 l-117 0 -3 173 c-4 230 -4 227 36 227 19 0 50
12 76 29 25 16 50 30 55 30 6 1 -10 -12 -33 -28z m4970 -12 c21 1 38 -3 38 -9
0 -6 45 -10 125 -10 l125 0 0 -40 0 -40 -85 0 -85 0 0 -40 0 -40 85 0 85 0 0
-40 0 -40 -85 0 -85 0 0 -40 0 -40 90 0 90 0 0 -40 0 -40 -145 0 -145 0 0 181
c0 153 -2 180 -14 176 -8 -3 -20 1 -26 9 -13 15 -60 20 -60 5 0 -5 7 -15 17
-22 47 -40 70 -178 39 -238 -22 -41 -80 -88 -123 -100 -21 -6 -111 -11 -201
-11 l-162 0 -16 40 -16 40 -68 0 -67 0 -16 -40 -15 -40 -196 0 -196 0 0 200 0
200 140 0 140 0 0 -40 0 -40 -85 0 -85 0 0 -40 0 -40 80 0 80 0 0 -40 0 -40
-80 0 -80 0 0 -40 0 -40 89 0 c76 0 90 -3 93 -17 2 -9 35 62 75 158 l71 174
54 3 53 3 64 -153 c113 -268 99 -262 100 -40 l1 192 123 1 c67 0 145 6 172 13
28 7 54 10 60 7 5 -2 26 -4 47 -2z m4308 -7 c30 -24 21 -37 -37 -52 -37 -8
-51 -18 -63 -41 -8 -16 -45 -75 -82 -132 -84 -128 -86 -134 -56 -139 14 -2 24
-11 26 -23 2 -17 -12 -25 -105 -53 -59 -19 -112 -41 -119 -50 -10 -14 -19 -13
-84 17 -40 18 -95 35 -122 38 -43 5 -51 3 -64 -16 -27 -37 -124 -18 -124 25 0
16 56 54 80 54 9 0 30 27 48 59 18 33 52 86 76 119 24 32 47 68 50 80 4 11 32
44 63 72 48 44 60 51 92 48 20 -2 36 -8 36 -14 0 -6 -36 -53 -80 -103 -43 -50
-106 -128 -138 -173 l-59 -83 89 -18 c102 -22 112 -23 175 -6 35 10 48 19 53
36 3 13 39 73 81 134 51 76 69 109 56 105 -25 -8 -67 25 -59 47 3 9 49 30 114
51 127 42 124 41 153 18z m441 -3 c12 -6 18 -17 15 -25 -4 -11 -1 -14 12 -10
48 15 176 38 242 43 64 5 79 3 94 -12 25 -26 9 -35 -75 -46 -41 -5 -104 -16
-141 -25 -63 -15 -68 -18 -68 -43 0 -15 -5 -32 -11 -38 -7 -7 -1 -12 24 -17
37 -7 63 -29 53 -45 -3 -5 -42 -17 -85 -26 -78 -17 -81 -19 -125 -74 -25 -31
-46 -62 -46 -68 0 -37 132 11 223 81 27 21 55 35 63 32 29 -11 11 -73 -30
-108 -32 -26 -161 -78 -211 -85 -40 -5 -47 -3 -76 26 -31 32 -36 64 -15 112 6
13 2 16 -18 12 -57 -11 -14 51 54 80 33 13 126 105 116 114 -2 3 -41 -12 -87
-31 -95 -41 -109 -43 -109 -16 0 36 51 79 125 104 l70 25 -50 -5 c-27 -3 -80
-10 -117 -16 -61 -9 -68 -12 -68 -32 0 -13 -13 -41 -28 -62 -16 -21 -36 -51
-46 -66 l-18 -27 34 6 c27 4 41 0 64 -20 38 -33 28 -42 -69 -55 -43 -5 -84
-15 -91 -21 -7 -6 -28 -40 -45 -76 -23 -45 -36 -62 -46 -58 -19 7 -29 44 -23
82 4 26 2 28 -18 21 -25 -10 -34 -4 -34 20 0 24 29 46 77 59 34 9 50 23 91 79
27 37 57 79 67 94 l17 28 -43 -15 c-23 -8 -67 -29 -97 -45 -59 -32 -72 -31
-72 3 0 42 28 65 108 91 179 56 365 81 413 55z m-8878 -12 c56 -24 61 -39 24
-75 l-33 -32 -39 20 c-49 23 -84 18 -120 -20 -35 -37 -44 -103 -20 -153 28
-60 101 -80 147 -40 20 18 47 10 77 -21 28 -29 23 -40 -31 -67 -34 -17 -55
-20 -119 -17 -67 3 -83 7 -120 33 -50 35 -80 89 -87 154 -13 139 75 231 221
231 37 0 82 -6 100 -13z m372 -6 c140 -63 155 -275 26 -366 -37 -26 -53 -30
-120 -33 -87 -4 -122 8 -179 61 -95 91 -68 277 49 335 57 29 166 30 224 3z
m305 -6 c0 -8 17 -60 37 -116 l36 -102 40 116 40 117 72 0 72 0 7 -46 c3 -26
6 -116 6 -200 l0 -154 -55 0 -55 0 -1 118 0 117 -43 -115 -43 -115 -43 0 -43
0 -43 120 -43 120 0 -122 -1 -123 -50 0 -50 0 0 199 0 200 53 3 c71 4 107 -2
107 -17z m-1020 -25 l0 -40 -85 0 -85 0 0 -40 0 -40 80 0 80 0 0 -40 0 -40
-80 0 -80 0 0 -40 0 -40 90 0 90 0 0 -40 0 -40 -145 0 -145 0 0 200 0 200 140
0 140 0 0 -40z m1650 0 l0 -40 -85 0 -85 0 0 -40 0 -40 85 0 85 0 0 -40 0 -40
-85 0 -85 0 0 -40 0 -40 90 0 90 0 0 -40 0 -40 -146 0 -145 0 2 193 c1 105 4
195 6 200 2 4 65 7 139 7 l134 0 0 -40z m520 0 l0 -40 -55 0 -55 0 0 -160 0
-160 -55 0 -55 0 0 160 0 160 -55 0 -55 0 0 40 0 40 165 0 165 0 0 -40z m120
-35 l0 -75 70 0 70 0 0 75 0 75 55 0 55 0 0 -200 0 -200 -55 0 -55 0 0 85 0
85 -70 0 -70 0 0 -85 0 -85 -55 0 -55 0 0 200 0 200 55 0 55 0 0 -75z m580 35
l0 -40 -90 0 -90 0 0 -40 0 -40 85 0 85 0 0 -40 0 -40 -85 0 -85 0 0 -40 0
-40 95 0 95 0 0 -40 0 -40 -145 0 -145 0 0 200 0 200 140 0 140 0 0 -40z m330
-120 l0 -160 75 0 75 0 0 -40 0 -40 -130 0 -130 0 0 200 0 200 55 0 55 0 0
-160z m1855 146 c80 -34 87 -169 11 -204 l-26 -12 38 -62 c72 -117 72 -108 0
-108 l-63 0 -43 80 c-24 44 -47 80 -52 80 -6 0 -10 -36 -10 -80 l0 -80 -54 0
-55 0 2 200 1 200 108 0 c71 0 120 -5 143 -14z m2117 -132 c3 -139 4 -147 27
-165 13 -10 31 -19 41 -19 10 0 28 9 41 19 23 18 24 26 27 165 l3 146 56 0 55
0 -4 -147 c-4 -165 -12 -193 -70 -235 -46 -32 -172 -34 -215 -2 -58 43 -68 75
-72 237 l-3 147 55 0 56 0 3 -146z m555 120 c60 -45 61 -140 2 -187 l-31 -24
46 -75 c25 -42 46 -78 46 -82 0 -3 -27 -6 -59 -6 l-60 0 -42 80 c-22 44 -45
80 -50 80 -5 0 -9 -36 -9 -80 l0 -80 -55 0 -55 0 0 201 0 201 119 -4 c103 -3
124 -6 148 -24z m-10891 -312 c37 -25 51 -144 33 -287 -15 -125 -12 -221 8
-252 12 -18 13 -26 3 -38 -7 -9 -9 -23 -4 -37 4 -13 8 -27 9 -33 0 -5 12 -12
26 -15 20 -4 72 -59 198 -210 94 -113 171 -207 171 -210 0 -18 -600 -19 -740
-1 -52 6 -104 13 -115 15 -11 2 -42 4 -69 5 l-48 1 63 71 c35 39 81 92 103
118 21 25 59 69 85 96 25 28 58 66 73 84 24 27 34 32 65 30 59 -4 93 0 93 11
0 6 -7 10 -16 10 -8 0 -25 5 -37 11 -20 11 -19 13 22 33 l42 22 -36 14 c-19 7
-35 17 -35 20 0 4 11 16 25 28 14 13 23 27 20 32 -3 6 5 10 19 10 14 0 27 4
30 8 3 5 8 65 12 134 6 125 -8 293 -27 313 -20 21 1 35 27 17z m2039 -80 c-19
-16 -121 -80 -163 -102 -23 -12 -46 -29 -51 -38 -6 -10 -20 -16 -39 -14 -16 1
-40 -2 -53 -7 l-24 -10 25 -2 c14 0 33 -1 43 0 25 3 21 -17 -5 -22 -13 -2 1
-5 30 -6 56 -1 75 -12 86 -49 8 -25 34 -29 43 -7 3 9 -2 22 -13 30 -18 13 -18
14 8 20 43 11 46 6 65 -102 5 -30 9 -33 42 -34 20 -1 28 -3 19 -6 -28 -7 -21
-21 15 -33 26 -8 19 -9 -42 -5 -73 4 -117 -7 -106 -26 4 -5 36 -10 73 -11 37
0 52 -3 35 -5 -32 -4 -33 -6 -33 -53 l0 -48 66 -4 c44 -2 69 1 76 9 6 7 15 10
20 7 5 -3 -7 -21 -26 -40 -19 -18 -37 -44 -39 -56 -2 -13 -5 -2 -6 25 l-1 47
-45 0 -45 0 0 -45 c0 -43 1 -45 30 -45 25 0 30 -4 30 -24 0 -13 -7 -29 -15
-36 -8 -7 -15 -19 -15 -27 0 -7 -7 -16 -15 -19 -8 -4 -15 -12 -15 -19 0 -7 -6
-15 -12 -18 -10 -3 -10 -9 0 -26 6 -11 12 -29 12 -38 0 -14 -3 -14 -16 5 -22
32 -34 27 -29 -10 4 -25 3 -28 -3 -13 -10 21 -30 77 -39 108 -10 33 12 17 27
-21 12 -28 17 -33 22 -20 4 10 -1 27 -13 41 -10 14 -19 35 -19 46 0 12 -8 25
-17 28 -28 11 -49 35 -69 78 -10 22 -33 61 -51 86 -18 26 -38 61 -44 78 -6 17
-16 31 -22 31 -10 1 -53 49 -76 85 -3 6 -33 32 -65 58 -91 74 -153 131 -134
124 10 -3 56 -11 103 -18 146 -19 257 14 439 130 48 30 71 40 51 23z m-715
-127 c26 -13 61 -35 78 -49 16 -15 33 -26 37 -26 8 0 82 -77 139 -144 22 -27
46 -54 52 -60 6 -7 19 -26 28 -43 9 -18 25 -38 35 -46 11 -7 29 -33 40 -58 11
-24 30 -56 42 -70 23 -29 38 -109 20 -109 -8 0 -8 -6 1 -20 12 -20 13 -19 18
12 l6 33 13 -40 c7 -22 19 -55 28 -73 16 -37 14 -73 -4 -80 -9 -2 -13 8 -13
32 0 19 -5 38 -11 41 -18 12 -19 0 -4 -51 18 -59 17 -54 5 -54 -5 0 -10 7 -10
15 0 8 -7 15 -15 15 -9 0 -14 9 -14 23 1 12 -1 29 -5 38 -4 10 -3 20 3 24 6 3
11 14 11 23 0 11 -3 13 -11 5 -28 -28 -74 20 -62 65 2 11 0 23 -6 26 -6 4 -11
17 -11 30 0 22 -29 71 -30 50 0 -5 -16 -10 -35 -11 -33 -1 -35 1 -34 30 0 26
2 28 8 13 8 -20 8 -20 13 0 3 10 2 28 -2 39 -7 18 -8 19 -15 3 -11 -27 -25
-11 -19 22 6 28 -18 90 -63 165 -22 37 -105 121 -158 160 -87 65 -114 76 -210
83 -67 5 -74 7 -45 13 57 12 150 0 200 -26z m-750 -24 c0 -5 9 -7 21 -4 31 9
124 -37 154 -76 11 -15 32 -38 47 -54 16 -16 25 -35 23 -47 -2 -11 1 -20 7
-20 5 0 8 7 4 15 -4 11 1 14 19 13 27 -3 31 -8 14 -25 -8 -8 -5 -17 11 -33 18
-18 24 -20 31 -9 6 10 9 5 9 -15 0 -21 -4 -27 -15 -22 -8 3 -14 2 -14 -2 5
-32 -3 -48 -23 -47 -13 0 -25 -4 -28 -10 -7 -14 40 -19 53 -6 6 6 17 11 24 11
17 0 17 -27 1 -34 -7 -3 0 -2 16 1 20 4 27 3 22 -6 -9 -14 -1 -14 25 0 11 6
25 8 32 6 7 -2 -5 -11 -26 -20 -21 -9 -36 -21 -33 -26 4 -5 -3 -12 -14 -16
-11 -3 -20 -11 -20 -16 0 -5 -7 -9 -16 -9 -11 0 -14 5 -10 16 5 12 2 15 -10
10 -8 -3 -24 -6 -35 -6 -12 0 -19 -7 -19 -19 0 -15 -7 -19 -35 -18 -41 1 -46
12 -10 21 14 4 30 17 35 30 12 33 29 41 44 21 12 -17 13 -16 19 5 6 21 4 22
-40 17 -28 -3 -50 -11 -55 -21 -11 -20 -32 -21 -24 -1 3 9 0 15 -9 15 -8 0
-15 -8 -15 -18 0 -11 -9 -27 -20 -37 -26 -24 -25 -33 5 -37 18 -2 22 -7 16
-17 -7 -10 -14 -8 -35 10 -15 13 -24 29 -21 37 7 19 -5 62 -18 62 -6 0 -18 -6
-26 -14 -23 -19 -61 -30 -61 -16 0 6 8 13 18 17 9 3 24 12 32 18 19 16 60 2
60 -20 0 -8 7 -15 15 -15 20 0 19 10 -6 36 l-21 23 26 24 c27 25 27 28 -8 41
-13 4 -17 2 -13 -8 4 -10 1 -13 -9 -9 -10 3 -12 0 -9 -10 7 -18 -25 -33 -36
-16 -10 17 -29 1 -29 -24 -1 -22 -1 -22 -15 -3 -12 16 -18 17 -27 8 -7 -7 -18
-12 -25 -12 -11 0 -11 5 -3 20 8 16 15 18 35 10 21 -8 24 -6 27 17 3 29 28 45
28 19 0 -9 7 -16 15 -16 8 0 15 7 15 15 0 8 -7 15 -15 15 -9 0 -15 9 -15 23 0
29 14 49 31 45 9 -2 15 7 17 25 2 15 7 25 11 22 5 -2 6 7 3 20 -5 26 -16 32
-27 15 -4 -6 -16 -10 -28 -8 -20 3 -22 -1 -22 -54 0 -31 -3 -60 -7 -64 -5 -4
-8 15 -8 43 0 36 -4 53 -15 57 -9 3 -15 18 -15 36 0 18 -6 33 -15 36 -23 9
-18 33 10 44 28 11 31 20 13 38 -9 9 -9 12 0 12 7 0 12 -4 12 -9z m6061 -118
c6 -21 20 -49 30 -62 11 -13 19 -31 19 -40 0 -29 19 -41 46 -29 13 6 24 14 24
18 0 3 -18 19 -40 36 -44 33 -49 44 -20 44 11 0 34 -15 51 -34 l30 -34 92 5
c85 5 95 3 127 -19 29 -20 36 -31 38 -65 3 -35 -1 -44 -28 -66 -17 -15 -39
-31 -48 -36 -15 -9 -15 -11 -1 -28 26 -29 30 -52 15 -87 -18 -43 -66 -82 -151
-122 -127 -61 -222 -66 -287 -14 -52 40 -81 160 -40 160 26 0 42 -20 42 -51 0
-15 9 -37 19 -50 17 -21 28 -24 83 -23 68 1 146 29 221 81 80 55 72 97 -14 69
-62 -21 -79 -16 -79 21 -1 27 -3 26 -54 -29 -54 -59 -72 -68 -94 -46 -18 18
-15 30 23 71 l34 37 -19 33 c-11 17 -20 42 -20 54 0 20 8 28 58 59 2 1 -15 30
-37 64 -23 35 -41 69 -41 76 0 7 -3 19 -6 28 -3 9 -2 16 4 16 6 0 16 -17 23
-37z m5445 21 c41 -20 85 -64 125 -125 61 -96 48 -282 -26 -356 -18 -18 -37
-33 -41 -33 -4 0 -19 -11 -33 -24 -34 -31 -111 -49 -176 -41 -31 4 -61 3 -72
-4 -27 -14 -59 -91 -73 -174 -10 -53 -16 -67 -30 -67 -14 0 -19 -10 -22 -40
-2 -22 0 -47 5 -56 6 -11 3 -20 -12 -31 -19 -13 -21 -21 -15 -66 4 -29 10 -56
14 -62 4 -5 10 -44 13 -85 10 -120 51 -266 123 -431 51 -117 67 -167 70 -209
1 -30 8 -59 16 -65 7 -5 12 -20 10 -32 -2 -16 2 -23 12 -23 10 0 16 -9 17 -22
0 -13 4 -54 10 -93 5 -38 11 -119 13 -179 4 -103 3 -110 -19 -130 -12 -12 -25
-32 -29 -46 -7 -23 -6 -24 8 -7 20 25 29 6 21 -45 -10 -58 -31 -104 -78 -173
-49 -73 -69 -90 -80 -68 -5 8 -6 17 -3 20 3 4 6 0 6 -8 0 -9 6 -7 18 7 9 12
33 41 52 64 l34 43 -27 -5 c-27 -5 -27 -5 -11 13 16 18 16 19 -4 19 -12 0 -22
5 -22 10 0 6 -7 10 -15 10 -8 0 -15 -5 -15 -11 0 -5 -4 -8 -9 -5 -7 5 -60 -49
-62 -63 0 -3 -2 -21 -4 -39 -1 -18 -12 -43 -22 -55 -33 -36 -35 -46 -11 -39
21 5 22 4 9 -11 -7 -9 -24 -17 -37 -17 -13 0 -24 -4 -24 -10 0 -5 4 -10 9 -10
11 0 9 -35 -3 -62 -4 -9 -3 -26 3 -37 8 -14 8 -22 -1 -27 -6 -4 -14 -2 -16 4
-2 6 -9 9 -15 6 -7 -2 -22 12 -35 31 -12 19 -17 35 -12 35 6 0 15 -10 20 -22
l9 -23 0 23 c1 15 7 22 21 22 11 0 20 5 20 10 0 6 -9 10 -20 10 -11 0 -20 6
-20 14 0 8 -5 18 -12 22 -7 5 -8 2 -3 -7 4 -8 -5 -2 -22 14 -35 33 -50 35 -29
5 30 -42 16 -51 -19 -12 -40 46 -42 54 -15 61 11 3 20 8 20 12 -1 11 -46 58
-73 76 -15 9 -24 21 -22 26 5 8 -7 36 -31 69 -6 8 -23 44 -38 80 -16 36 -39
76 -52 90 -12 14 -26 38 -30 53 -7 31 -25 43 -49 33 -11 -4 -13 -11 -5 -31 6
-16 6 -25 0 -25 -6 0 -10 -7 -10 -15 0 -8 4 -15 9 -15 5 0 20 -17 32 -37 13
-21 39 -55 58 -76 29 -32 68 -97 57 -97 -1 0 -18 21 -36 48 -19 26 -37 49 -41
52 -14 10 -139 172 -139 180 0 5 -9 19 -20 32 -11 12 -52 63 -90 113 -74 95
-90 130 -45 101 13 -9 26 -16 28 -16 3 0 4 28 4 63 0 38 6 73 17 92 19 35 21
102 4 157 -9 32 -9 41 1 48 11 6 11 15 1 44 -14 42 -4 223 13 244 12 15 11
143 -1 151 -24 17 3 284 33 321 7 8 15 36 18 61 14 108 174 427 214 429 7 0
27 24 43 54 17 30 38 60 47 67 8 7 19 24 24 37 5 13 13 20 19 17 17 -11 58 25
79 70 29 62 152 155 258 195 63 24 192 26 239 4z m-4571 -128 c16 -23 14 -27
-30 -88 -61 -82 -94 -148 -115 -227 -9 -36 -21 -66 -26 -68 -6 -2 -22 5 -35
15 -21 18 -22 22 -11 58 l11 38 -77 -75 c-132 -130 -149 -137 -201 -93 -51 43
-43 72 71 242 27 40 62 99 76 130 15 31 31 62 35 69 11 17 43 4 56 -23 15 -34
-1 -70 -91 -202 -41 -59 -82 -120 -92 -136 l-18 -29 22 16 c94 66 269 239 359
355 18 23 37 42 42 42 5 0 16 -11 24 -24z m823 8 c36 -25 26 -40 -33 -53 -36
-8 -55 -17 -55 -27 0 -8 -13 -32 -29 -52 -16 -20 -57 -80 -89 -132 l-60 -95
27 -5 c16 -3 27 -12 29 -25 2 -17 -13 -25 -107 -54 -91 -28 -113 -32 -126 -21
-20 17 -19 47 3 59 9 5 34 12 54 16 27 5 38 13 42 30 3 13 31 61 62 107 31 46
57 88 57 95 0 7 6 14 14 17 20 8 16 25 -5 19 -22 -5 -57 31 -49 51 3 8 32 24
64 35 32 12 65 24 73 28 8 3 28 7 44 9 16 3 32 6 34 9 9 9 27 5 50 -11z m-551
-20 c17 -17 24 -33 20 -49 -3 -18 1 -26 14 -30 28 -9 69 -63 69 -91 0 -43 -28
-93 -87 -156 -130 -136 -284 -156 -354 -46 -23 38 -21 106 6 157 27 53 73 29
61 -31 -21 -112 -21 -115 14 -133 43 -22 85 -10 155 43 75 57 153 168 132 188
-3 3 -43 -4 -90 -15 -92 -24 -118 -20 -156 20 -45 49 -13 106 84 150 58 27
101 24 132 -7z m-2408 -96 c23 -57 59 -143 79 -191 l37 -89 3 191 2 191 63 0
62 0 70 -116 70 -116 3 116 3 116 49 0 50 0 0 -200 0 -200 -60 0 c-51 0 -62 3
-74 23 -8 12 -40 65 -73 118 l-58 96 4 -119 3 -119 -118 3 -117 3 -12 35 -12
35 -73 0 -73 0 -12 -35 c-11 -34 -13 -35 -68 -38 -32 -2 -57 1 -57 5 0 4 32
85 71 178 39 94 75 180 80 193 7 19 16 22 62 22 l54 0 42 -102z m842 67 c56
-40 84 -95 84 -165 -1 -81 -35 -137 -104 -172 -50 -26 -64 -28 -168 -28 l-113
0 0 201 0 201 129 -3 c125 -4 131 -5 172 -34z m-5180 -175 l30 -29 -21 -21
c-12 -12 -20 -31 -18 -42 4 -28 28 -36 28 -10 0 33 30 36 62 5 16 -15 26 -33
24 -40 -3 -7 1 -13 8 -13 20 0 29 -30 11 -36 -8 -4 -15 -11 -15 -16 0 -6 6 -8
14 -5 7 3 20 -3 28 -12 22 -26 0 -51 -46 -51 -20 0 -36 2 -36 4 0 2 -3 11 -6
19 -3 9 3 16 15 20 12 3 21 10 21 16 0 15 -60 14 -60 -1 0 -7 -5 -5 -11 5 -13
23 -3 37 26 37 12 0 26 7 29 16 9 23 6 25 -45 16 -31 -5 -44 -12 -44 -24 0
-25 -11 -30 -25 -12 -11 12 -11 17 -1 23 7 5 11 21 9 37 -3 26 -7 29 -34 27
-24 -2 -33 2 -37 17 -7 26 -27 26 -34 0 -7 -24 -29 -21 -27 4 2 15 0 16 -15 3
-17 -16 -131 -29 -131 -15 0 7 32 13 54 9 20 -4 47 12 42 25 -9 22 31 38 50
19 21 -21 51 -19 71 5 22 25 34 25 56 -1 10 -11 21 -18 25 -14 4 4 1 10 -5 12
-7 3 -13 11 -13 19 0 8 -4 14 -10 14 -5 0 -10 5 -10 10 0 16 10 12 41 -20z
m153 -310 c5 -6 4 -15 -3 -24 -15 -18 -6 -38 17 -34 13 2 16 -3 14 -24 -2 -20
2 -28 13 -28 9 0 13 5 10 10 -3 6 -1 10 5 10 6 0 8 -10 4 -25 -3 -14 -2 -25 3
-25 5 0 10 -7 10 -15 0 -8 -7 -15 -16 -15 -9 0 -26 -11 -39 -25 -20 -21 -27
-22 -48 -13 -13 6 -24 17 -24 25 0 16 -17 17 -22 2 -3 -9 -10 -8 -25 1 -17 11
-24 10 -44 -3 -25 -18 -39 -21 -39 -9 0 4 10 12 22 17 33 15 34 34 2 32 -15
-1 -29 3 -31 8 -4 12 103 12 114 1 4 -3 -2 -6 -12 -6 -14 0 -16 -3 -7 -12 7
-7 15 -8 24 -1 7 5 27 7 43 3 20 -3 26 -8 18 -13 -18 -11 -16 -27 2 -27 8 0
15 7 15 15 0 8 9 15 20 15 17 0 19 2 8 14 -8 8 -15 10 -19 4 -4 -6 -25 3 -49
21 -24 17 -51 31 -62 31 -26 0 -22 17 6 24 18 4 23 12 22 33 -1 16 -5 34 -10
42 -7 11 -2 12 30 7 21 -4 43 -12 48 -16z m-894 -132 c0 -2 3 -66 7 -143 3
-77 7 -142 9 -144 10 -12 323 -111 341 -108 12 2 24 1 25 -2 2 -4 44 -20 93
-35 50 -16 104 -34 120 -41 51 -21 158 -56 210 -70 28 -7 67 -20 87 -29 46
-20 48 -20 48 -1 0 14 -12 19 -32 16 -12 -2 -9 17 3 21 6 2 12 19 13 38 2 19
6 44 10 56 4 14 -1 27 -19 44 -25 24 -29 21 -37 -22 -3 -16 -5 -16 -35 -1 -30
14 -33 19 -31 57 1 40 1 40 5 6 6 -52 20 -57 28 -10 6 34 4 44 -12 55 -13 10
-18 25 -17 59 1 27 -4 46 -10 46 -6 0 -2 7 9 16 16 12 17 17 7 32 -7 9 -16 27
-22 40 -5 12 -14 22 -20 22 -16 0 -12 -37 5 -44 17 -6 21 -46 5 -46 -5 0 -10
7 -10 15 0 8 -4 15 -9 15 -5 0 -13 10 -17 23 -4 12 -12 25 -18 29 -6 5 -3 8 9
8 12 0 26 5 33 12 10 10 20 8 50 -7 20 -11 43 -27 49 -35 10 -12 14 -13 21 -2
7 11 14 11 28 3 11 -6 31 -15 46 -21 25 -8 27 -12 17 -34 -8 -18 -8 -33 -1
-55 12 -35 6 -42 -38 -43 -23 -1 -30 -6 -35 -29 -4 -19 -11 -26 -21 -22 -21 8
-17 -10 6 -25 17 -11 20 -10 20 7 0 11 5 23 10 26 6 3 10 -3 10 -14 0 -12 5
-21 10 -21 6 0 10 -7 10 -16 0 -8 -4 -12 -10 -9 -5 3 -10 2 -10 -4 0 -5 5 -11
10 -13 7 -2 7 -25 1 -73 -11 -73 -9 -81 24 -87 11 -2 21 -12 23 -23 4 -20 3
-20 -11 -1 -10 13 -16 15 -21 8 -10 -16 2 -32 23 -32 10 0 24 -7 31 -15 7 -8
18 -15 24 -15 16 0 248 -75 274 -89 13 -7 22 -21 22 -35 0 -23 -4 -25 -72 -30
-40 -3 -251 -10 -468 -16 -408 -11 -952 -27 -1145 -35 -60 -2 -210 -7 -332
-11 l-221 -7 -4 29 c-4 34 -25 40 -188 53 -58 5 -154 16 -215 25 -60 10 -126
19 -145 21 -19 2 -78 10 -130 18 -52 8 -166 23 -252 33 -86 10 -155 21 -152
25 2 4 19 10 37 14 35 7 55 13 167 49 41 13 93 28 115 32 22 4 56 14 75 22 19
8 82 27 140 43 58 16 132 37 165 48 33 10 92 28 130 39 39 12 115 34 170 51
129 38 170 47 161 32 -4 -6 -15 -11 -24 -11 -19 0 -80 -21 -100 -34 -10 -6 -6
-13 17 -27 35 -21 51 -24 51 -9 0 6 -9 10 -19 10 -11 0 -23 5 -26 10 -8 13 -1
13 46 -2 31 -9 39 -16 39 -35 0 -12 3 -23 6 -23 16 0 44 23 44 35 0 9 10 15
26 15 21 0 25 4 21 19 -4 17 -2 19 21 10 19 -7 29 -6 43 7 17 15 92 36 129 36
22 0 74 20 82 32 4 6 8 45 8 87 0 42 3 104 6 137 l7 61 46 3 c70 5 401 10 401
6z m5703 -664 c37 -4 70 -11 73 -15 3 -5 0 -9 -5 -9 -6 0 -11 -5 -11 -11 0 -7
9 -9 24 -5 25 6 106 -28 106 -44 0 -6 12 -15 26 -20 20 -8 24 -13 15 -24 -12
-14 -5 -26 12 -22 7 2 9 1 5 -1 -15 -8 -8 -25 17 -45 14 -11 25 -28 24 -37 -3
-18 27 -74 54 -103 9 -10 13 -18 7 -18 -15 0 -12 -30 3 -31 6 -1 1 -5 -13 -9
-20 -7 -16 -8 25 -10 l50 -2 -35 -9 c-132 -34 -293 -39 -413 -14 -39 9 -106
22 -147 30 -41 8 -104 21 -140 28 -91 20 -26 22 77 2 92 -18 93 -18 93 -6 0 5
-9 7 -19 4 -12 -3 -28 4 -41 17 -18 18 -24 20 -31 9 -8 -12 -11 -12 -19 1 -5
8 -10 21 -10 29 0 9 -7 11 -21 8 -12 -3 -28 0 -36 9 -8 8 -26 14 -41 14 -47 0
-74 11 -62 25 8 9 6 14 -5 19 -8 3 -15 10 -15 16 0 6 4 9 9 6 18 -11 39 6 43
34 4 24 2 27 -9 18 -27 -22 -23 1 6 32 19 21 40 33 58 34 24 1 28 5 28 29 -1
24 2 27 21 23 27 -7 37 3 21 22 -10 13 -9 15 4 10 9 -4 40 -3 70 2 50 7 51 8
14 9 -30 1 -36 4 -25 11 15 10 74 8 213 -6z m2580 -76 c12 -13 21 -26 20 -30
-2 -5 4 -8 12 -8 8 0 15 -3 15 -7 0 -5 12 -21 26 -38 24 -28 27 -66 6 -87 -8
-8 -220 -44 -377 -63 -60 -8 -132 -21 -160 -29 -27 -8 -51 -14 -53 -12 -7 7
62 36 85 36 37 0 23 24 -18 31 l-34 6 25 11 c18 8 20 11 8 11 -10 1 -18 7 -18
15 0 7 -7 19 -15 26 -23 19 -18 46 15 92 17 22 30 47 30 55 0 10 40 13 205 13
199 0 206 -1 228 -22z m5266 -464 c52 -12 86 -25 89 -34 3 -8 20 -33 37 -55
17 -22 39 -52 48 -67 12 -19 26 -28 42 -28 22 0 25 3 19 24 -3 13 -1 27 5 30
6 4 11 15 11 25 0 11 9 21 22 24 18 5 19 8 9 21 -15 18 -11 20 52 31 38 6 38
6 34 -23 -6 -35 -20 -63 -61 -119 -26 -35 -35 -41 -56 -36 -13 4 -37 6 -53 6
-28 0 -71 43 -65 66 5 15 -74 83 -84 73 -13 -13 1 -63 16 -55 6 4 4 -1 -3 -11
-14 -17 -15 -17 -23 3 -4 12 -11 21 -16 21 -21 0 -19 -15 5 -51 14 -22 23 -42
19 -46 -7 -7 -20 8 -73 87 -20 30 -49 71 -65 91 -33 43 -35 52 -10 46 9 -3 55
-13 101 -23z m2880 -73 c-23 -33 -44 -61 -47 -61 -2 0 3 11 12 25 20 30 20 45
2 45 -14 0 -46 -41 -46 -61 0 -6 -9 -24 -21 -40 -25 -36 -14 -39 13 -3 11 14
22 23 25 20 7 -7 -23 -59 -46 -80 -26 -24 -26 -37 -1 -69 24 -30 24 -33 4 -41
-16 -6 -40 14 -67 56 -9 14 -25 29 -35 32 -10 4 -29 24 -41 46 -12 22 -26 40
-32 40 -5 0 -9 9 -9 19 0 10 -7 21 -15 25 -8 3 -15 12 -15 20 0 8 -16 28 -35
45 -38 33 -34 36 38 25 31 -6 42 -14 63 -50 27 -47 49 -56 58 -26 12 38 59 70
111 76 28 3 66 9 85 14 19 5 36 8 38 6 2 -1 -16 -29 -39 -63z m-1267 -4 c-39
-52 -51 -71 -98 -140 -21 -32 -28 -36 -40 -26 -8 7 -11 15 -7 18 4 3 14 16 21
29 11 19 10 22 -6 22 -9 0 -23 -9 -30 -20 -10 -17 -16 -18 -37 -8 -14 6 -25
15 -25 19 0 4 -9 10 -19 14 -13 4 -22 19 -26 45 -4 22 -12 40 -19 40 -6 0 -19
9 -29 20 -9 11 -26 20 -36 20 -11 0 -23 5 -26 10 -8 13 61 13 86 0 10 -6 19
-16 19 -23 0 -7 11 -25 23 -41 l24 -29 23 34 c13 19 24 35 24 36 1 1 15 5 31
8 28 7 28 6 11 -7 -20 -15 -19 -49 1 -55 7 -3 17 6 23 19 17 42 34 55 85 65
28 5 53 8 57 6 4 -2 -9 -27 -30 -56z m-3075 -1 c15 -27 18 -28 21 -11 2 10 -1
21 -7 23 -6 2 -11 7 -11 12 0 4 17 4 38 -1 20 -5 54 -9 74 -9 34 0 41 -5 79
-57 23 -32 50 -66 60 -75 9 -10 24 -27 33 -39 9 -13 19 -20 22 -16 4 4 2 13
-4 20 -7 8 -9 17 -5 20 3 4 -2 9 -11 13 -24 9 -20 26 17 67 30 35 37 38 127
51 52 8 97 12 99 10 6 -6 -112 -165 -138 -186 -14 -10 -26 -24 -27 -31 -2 -7
-6 -21 -9 -33 -5 -15 5 -35 32 -70 21 -27 45 -59 53 -70 8 -12 30 -43 48 -68
28 -38 31 -50 21 -62 -10 -12 -8 -19 12 -40 15 -16 20 -28 13 -32 -6 -4 -13
-14 -16 -21 -3 -10 -15 1 -36 31 -18 26 -32 51 -32 57 0 6 -4 12 -10 12 -5 1
-14 2 -19 3 -16 2 -35 25 -28 32 4 4 13 1 22 -6 8 -7 15 -8 15 -3 0 14 -47 63
-60 63 -5 0 -10 6 -10 14 0 8 -10 18 -22 22 l-22 7 22 17 c19 16 20 19 5 24
-9 4 -20 1 -25 -6 -6 -10 -10 -10 -18 2 -13 20 -12 30 3 30 6 0 0 10 -15 21
-16 11 -28 26 -28 33 0 7 -11 22 -25 34 -25 22 -34 57 -16 64 5 2 3 14 -4 28
l-14 25 -1 -25 0 -25 -20 25 c-11 14 -20 36 -20 50 -1 25 -1 25 -10 3 -5 -13
-15 -23 -22 -23 -9 0 -9 3 0 12 16 16 15 28 -3 28 -8 0 -15 -5 -15 -12 0 -6
-13 0 -28 15 l-29 27 5 -32 c2 -18 12 -42 22 -53 9 -11 25 -35 36 -52 10 -18
21 -33 25 -33 4 0 12 -15 18 -32 l11 -33 -23 26 c-12 14 -40 52 -62 83 -22 32
-61 85 -87 118 -27 33 -48 64 -48 69 0 18 32 -5 47 -35z m-2662 -15 c90 -10
108 -20 134 -74 12 -24 32 -54 46 -67 48 -45 3 -48 -50 -3 -16 14 -24 22 -17
19 8 -5 12 0 12 13 0 12 -7 21 -15 21 -8 0 -15 7 -15 15 0 8 -4 15 -10 15 -5
0 -10 -5 -10 -11 0 -7 -12 0 -26 15 -27 27 -55 37 -37 14 6 -7 13 -22 17 -32
6 -19 6 -19 -12 -3 -23 21 -32 22 -32 3 0 -19 47 -49 55 -35 13 20 47 -23 41
-51 -3 -14 -3 -19 0 -12 5 10 9 9 20 -5 18 -24 18 -43 -1 -43 -13 0 -13 -3 -3
-20 19 -30 0 -37 -25 -10 -30 33 -197 258 -197 266 0 3 12 3 27 -1 15 -3 59
-10 98 -14z m1455 -225 c0 -4 -18 -29 -40 -57 -22 -28 -40 -55 -40 -60 0 -16
19 -9 24 9 4 11 18 30 33 43 l26 24 -7 -42 c-4 -29 -2 -43 7 -47 8 -3 7 -9 -7
-20 -10 -9 -16 -22 -13 -31 4 -9 1 -15 -9 -15 -8 0 -29 -22 -46 -50 -17 -27
-35 -50 -39 -50 -5 0 -9 -6 -9 -14 0 -7 -16 -24 -35 -37 -19 -13 -35 -31 -35
-40 0 -9 -16 -37 -35 -62 -19 -25 -35 -51 -35 -58 0 -7 -3 -10 -6 -6 -4 3 -12
0 -19 -7 -18 -18 -55 -88 -55 -104 0 -7 -4 -11 -10 -7 -5 3 -7 12 -3 20 6 18
-4 19 -35 1 -23 -12 -23 -14 -7 -30 16 -16 16 -17 -8 -11 -29 8 -54 -22 -83
-96 -9 -24 -22 -50 -27 -56 -5 -7 -6 -13 -2 -13 4 0 14 8 21 18 12 15 12 15 7
-5 -7 -28 1 -29 29 -3 22 20 38 18 38 -6 0 -17 0 -17 36 1 30 14 74 65 74 85
0 5 4 10 8 10 4 0 16 15 27 33 10 17 25 37 32 42 15 11 7 49 -7 40 -5 -3 -11
-1 -15 5 -4 6 5 10 19 10 21 0 26 5 26 25 0 14 5 25 10 25 6 0 10 5 10 11 0 7
-10 9 -27 5 -25 -6 -24 -4 11 20 31 21 40 24 47 13 5 -8 9 -17 9 -21 0 -15 40
27 40 42 0 9 14 29 31 46 17 16 40 46 52 67 11 20 24 37 29 37 4 0 8 6 8 14 0
8 8 21 19 28 11 8 21 32 25 61 4 26 11 47 17 47 5 0 9 -5 9 -11 0 -7 10 -5 25
5 l25 16 104 -142 c58 -79 128 -173 155 -210 l50 -66 -31 -11 c-38 -13 -38
-13 -38 -1 0 6 9 10 20 10 11 0 20 5 20 10 0 6 -6 10 -14 10 -8 0 -18 -4 -21
-10 -3 -5 -14 -10 -24 -10 -22 0 -54 -33 -44 -45 5 -4 0 -5 -9 -2 -22 8 -24
-8 -3 -17 9 -3 19 3 25 14 6 11 18 20 27 20 15 0 15 -1 0 -18 -13 -14 -36
-116 -37 -165 0 -5 -4 -5 -10 -2 -5 3 -7 26 -4 50 4 37 2 45 -11 45 -9 0 -14
-4 -11 -9 4 -5 0 -12 -6 -15 -10 -5 -10 -7 0 -12 17 -8 15 -27 -2 -21 -25 10
-56 -22 -56 -58 0 -25 -7 -38 -27 -53 -25 -18 -27 -24 -25 -85 2 -57 0 -65
-18 -70 -16 -4 -20 -13 -20 -49 0 -24 5 -49 12 -56 8 -8 9 -12 1 -12 -6 0 -13
5 -15 12 -5 14 -38 3 -38 -12 0 -6 5 -8 10 -5 6 4 10 -7 9 -27 0 -29 -1 -30
-9 -12 -5 12 -14 25 -20 29 -6 4 -8 15 -5 25 3 10 1 21 -5 25 -15 9 -12 -47 4
-71 12 -17 12 -22 0 -39 -14 -18 -14 -18 -14 4 0 12 -7 30 -16 38 -9 9 -14 26
-11 40 5 27 -11 42 -24 22 -13 -20 -11 -107 3 -115 6 -4 17 1 25 11 12 17 13
16 13 -14 0 -19 4 -30 10 -26 15 10 12 -25 -4 -41 -21 -20 -26 -18 -26 15 0
39 -17 48 -31 17 -9 -20 -9 -29 0 -40 7 -8 9 -20 5 -27 -4 -8 -11 -4 -19 12
-13 22 -13 22 -22 -21 -10 -53 -24 -60 -42 -19 -17 40 -32 26 -34 -34 -2 -51
5 -62 46 -72 21 -6 27 -4 27 9 0 18 15 22 25 6 8 -14 56 -8 62 7 6 16 43 17
43 2 0 -6 -7 -9 -15 -5 -8 3 -15 1 -15 -5 0 -6 13 -9 30 -7 16 1 30 -2 30 -7
0 -6 -71 -11 -185 -12 -157 -1 -185 1 -185 14 0 10 6 12 20 8 11 -4 20 -2 20
4 0 6 -5 11 -11 11 -5 0 -8 4 -5 9 8 12 -21 34 -34 26 -6 -4 -10 6 -10 27 0
51 -10 76 -33 83 -21 7 -20 8 6 12 15 2 27 7 27 11 -1 10 -21 34 -44 52 -18
14 -18 13 -12 -8 6 -16 3 -22 -8 -22 -9 0 -16 9 -16 20 0 11 -6 23 -14 26 -10
4 -13 15 -9 40 4 22 2 34 -6 34 -6 0 -11 6 -11 14 0 8 -12 16 -27 18 -14 2
-29 9 -31 17 -3 9 0 11 9 6 15 -10 60 -14 72 -7 5 2 1 13 -9 23 -12 13 -21 16
-29 9 -9 -8 -28 3 -70 41 -39 36 -59 49 -64 40 -4 -6 -15 -9 -25 -5 -15 6 -17
3 -11 -14 9 -30 -13 -29 -25 1 l-9 22 0 -24 c-1 -14 7 -33 16 -43 12 -14 13
-17 2 -13 -8 4 -43 47 -79 97 -36 49 -73 97 -83 106 -23 21 -47 66 -47 88 0
16 2 16 15 -2 8 -10 14 -14 13 -9 -2 6 1 11 6 12 5 1 13 7 17 15 7 10 9 9 9
-4 0 -10 5 -18 10 -18 15 0 12 14 -16 69 -24 49 -54 68 -54 35 0 -14 -2 -14
-15 0 -19 19 -46 10 -38 -11 10 -25 -13 -7 -39 30 -12 18 -16 27 -8 21 17 -13
55 -12 67 1 5 4 3 5 -4 1 -21 -12 -33 25 -16 51 13 19 13 26 2 39 -11 13 -10
17 4 25 21 12 22 39 2 39 -8 0 -15 5 -15 10 0 6 -10 8 -24 4 -13 -3 -27 -1
-30 5 -5 7 10 11 43 11 l51 0 0 -38 c0 -26 7 -45 20 -57 11 -10 20 -14 21 -9
0 5 1 29 2 54 2 42 4 45 29 42 14 -2 29 2 33 7 10 16 65 14 65 -3 0 -17 40
-28 56 -15 17 14 50 -19 35 -34 -15 -15 -14 -27 2 -27 24 0 45 34 33 54 -9 13
-7 20 7 30 9 7 17 20 17 27 0 8 23 22 52 33 49 17 147 84 177 120 14 17 46 23
36 6 -3 -5 -1 -10 5 -10 7 0 9 8 5 21 -5 14 -4 19 4 15 7 -4 9 -1 5 7 -5 15
11 32 31 32 15 0 59 87 61 120 0 17 9 69 19 117 l18 86 54 -73 c29 -40 53 -76
53 -79z m-1168 -53 c10 -9 18 -20 18 -26 0 -5 17 -30 38 -56 57 -68 126 -170
121 -176 -3 -2 -21 0 -39 5 -24 7 -36 6 -41 -1 -4 -8 -14 -4 -29 11 -17 17
-30 21 -56 17 -28 -5 -36 -2 -45 15 -10 18 -9 20 4 15 13 -5 16 2 15 38 0 25
4 51 10 57 13 17 -3 58 -23 58 -10 0 -15 10 -15 30 0 34 14 38 42 13z m2520
-43 c5 0 8 -6 5 -14 -3 -8 0 -20 8 -26 19 -16 -3 -59 -27 -52 -10 2 -18 0 -18
-4 0 -15 -99 -119 -106 -111 -4 3 -1 15 7 24 13 16 12 17 -4 4 -43 -34 -26 14
34 94 16 22 42 58 56 80 21 30 28 36 31 23 2 -10 8 -18 14 -18z m4205 -56 c21
-31 46 -68 55 -83 10 -14 22 -33 28 -41 6 -8 20 -30 33 -49 12 -19 29 -45 37
-57 70 -102 136 -200 138 -206 2 -4 -11 -1 -28 5 -20 8 -29 17 -25 27 2 8 -3
5 -11 -8 l-17 -22 -23 25 c-28 31 -32 56 -5 31 17 -15 19 -16 25 -1 3 9 1 24
-5 33 -9 15 -10 14 -5 -3 6 -20 6 -20 -9 -1 -8 11 -15 30 -15 43 0 13 -9 32
-20 43 -11 11 -20 23 -20 26 0 3 -8 17 -19 30 l-19 24 -6 -23 c-3 -12 -1 -24
4 -25 6 -2 7 -8 4 -13 -8 -14 -34 9 -28 25 3 7 -7 18 -21 24 -24 11 -34 36
-17 45 9 6 44 -7 43 -16 -1 -4 1 -7 4 -7 15 0 -11 56 -29 63 -9 4 -16 13 -16
22 0 18 -11 20 -27 4 -8 -8 -13 -8 -17 0 -4 6 -3 11 2 11 16 0 22 29 8 42 -11
12 -46 76 -46 85 0 11 12 -3 47 -53z m-7917 -114 c9 -18 10 -25 1 -28 -6 -2
-11 -8 -11 -14 0 -6 6 -5 15 2 13 11 18 10 30 -6 8 -10 15 -22 15 -26 0 -4 25
-37 55 -73 30 -35 55 -67 55 -71 0 -3 20 -31 45 -63 49 -62 53 -76 30 -85 -22
-8 -45 9 -79 56 -15 21 -39 44 -53 49 -19 7 -23 14 -18 30 5 15 4 19 -4 14 -8
-4 -16 5 -24 24 -6 17 -15 31 -19 31 -4 0 -8 8 -8 19 0 10 -7 24 -15 31 -9 7
-14 19 -11 26 3 7 -2 18 -10 25 -8 6 -12 20 -9 29 4 11 -4 29 -20 46 -14 15
-25 34 -25 43 0 19 39 -20 60 -59z m3533 -94 c23 9 21 -4 -7 -40 -13 -17 -23
-44 -23 -58 0 -27 -70 -148 -85 -148 -5 0 -8 -9 -8 -21 0 -12 -4 -18 -11 -13
-6 3 -15 0 -20 -7 -21 -35 -12 25 14 81 1 3 -2 7 -8 10 -5 3 -17 -10 -27 -28
-9 -18 -23 -41 -31 -50 -8 -9 -27 -41 -41 -69 -14 -29 -31 -53 -36 -53 -6 0
-10 -8 -10 -17 0 -15 2 -14 14 3 22 30 29 11 9 -24 -24 -42 -43 -48 -64 -21
-20 27 -9 60 28 84 13 9 21 20 18 25 -3 5 4 14 15 20 11 6 20 16 20 23 0 7 15
33 33 58 17 26 52 75 76 110 61 88 115 149 122 138 3 -5 13 -7 22 -3z m-8968
-71 c1 -19 5 -38 8 -41 3 -4 28 1 54 11 57 20 87 24 90 10 1 -5 -5 -9 -14 -7
-8 2 -22 0 -32 -4 -9 -4 -18 -8 -21 -9 -63 -17 -69 -51 -15 -81 25 -13 33 -23
29 -36 -4 -12 0 -18 11 -18 9 0 13 5 10 10 -3 6 0 17 8 25 13 12 18 10 39 -14
22 -24 23 -29 10 -38 -9 -5 -12 -15 -8 -21 10 -17 26 -15 26 4 0 9 6 14 13 12
6 -3 12 -11 12 -19 0 -11 -18 -14 -77 -15 -43 -1 -78 3 -78 7 0 5 18 9 40 9
22 0 40 5 40 10 0 6 -12 10 -27 10 -24 0 -72 19 -50 20 5 0 5 5 1 11 -5 8 -10
6 -16 -5 -5 -9 -16 -16 -24 -16 -8 0 -28 -16 -45 -35 -34 -38 -49 -44 -49 -19
0 9 -7 14 -17 12 -24 -4 -28 -27 -6 -35 26 -10 45 -31 34 -37 -5 -4 -11 -1
-13 6 -7 20 -28 -2 -28 -28 0 -17 -9 -30 -30 -42 -39 -22 -38 -36 1 -28 22 4
29 2 26 -7 -2 -8 -26 -12 -72 -12 -61 0 -68 2 -76 23 -5 14 -16 22 -26 20 -11
-2 -19 6 -23 22 -4 18 -13 25 -28 24 -29 -1 -28 14 1 18 12 2 21 9 19 16 -1 6
5 12 13 12 24 0 17 17 -10 24 -17 4 -25 12 -23 23 4 21 -59 40 -76 23 -8 -8
-4 -12 12 -17 13 -3 21 -11 19 -17 -2 -6 0 -19 5 -28 10 -21 -8 -24 -32 -7
-11 8 -12 12 -2 16 23 9 12 23 -20 23 -18 0 -40 5 -48 10 -13 8 -12 11 5 24
14 11 46 15 115 16 93 0 94 0 65 16 -16 9 -43 20 -60 23 -25 6 -31 12 -33 38
l-3 31 68 -3 c37 -2 83 -4 100 -4 32 -1 32 -2 21 -28 -16 -38 -16 -37 -33 -23
-8 7 -22 10 -30 6 -18 -7 -20 5 -3 22 7 7 8 12 3 12 -12 -1 -50 -29 -44 -33
31 -23 61 -36 72 -31 9 3 16 -2 19 -14 4 -15 1 -18 -19 -14 -21 4 -24 1 -21
-19 3 -23 6 -24 51 -12 11 4 17 0 17 -11 0 -18 2 -19 24 -10 22 9 20 30 -5 48
-12 8 -18 19 -14 25 9 16 46 13 67 -6 15 -14 24 -14 58 -4 22 7 45 9 51 5 11
-7 51 30 42 39 -3 3 -13 1 -23 -5 -13 -8 -27 -9 -51 -1 l-34 11 32 1 c37 1 51
17 32 36 -11 11 -23 12 -54 3 -49 -13 -115 -3 -115 17 0 10 -10 15 -31 15 -17
0 -28 4 -24 10 3 6 17 10 31 10 39 0 27 46 -16 63 -9 3 -5 6 11 6 14 1 31 -5
37 -11 8 -8 15 -9 20 -3 10 14 82 18 82 5 0 -16 27 -12 34 6 9 24 18 10 21
-31z m-610 15 c-5 -15 -1 -22 17 -29 34 -12 56 -2 32 16 -16 11 -12 13 31 8
35 -3 41 -2 20 3 -22 6 3 10 87 15 120 7 190 -3 158 -23 -13 -8 -12 -10 3 -10
9 0 17 5 17 10 0 6 8 5 20 -2 25 -16 26 -28 0 -28 -10 0 -25 -6 -32 -14 -10
-11 -39 -13 -138 -8 -116 5 -124 4 -111 -11 9 -11 30 -17 60 -18 25 -1 38 -3
29 -6 -10 -2 -18 -9 -18 -14 0 -5 -16 -9 -35 -9 -19 0 -53 -7 -75 -16 -40 -16
-70 -14 -70 6 0 5 13 10 29 10 17 0 33 5 37 11 4 6 -1 9 -13 7 -35 -6 -29 17
7 29 37 12 32 17 -27 27 -19 3 -33 1 -33 -4 0 -6 7 -10 15 -10 17 0 20 -16 5
-25 -6 -4 -7 -11 -4 -17 4 -6 -5 -9 -22 -8 -53 4 -64 1 -58 -15 4 -8 14 -15
23 -15 10 0 24 -12 31 -26 12 -22 12 -27 0 -35 -13 -8 -13 -10 0 -19 28 -18
52 -12 50 13 -3 37 -1 41 18 24 17 -16 20 -15 40 8 22 25 42 33 42 16 0 -6 -5
-13 -10 -16 -6 -4 -8 -10 -5 -15 3 -5 -4 -11 -15 -15 -11 -3 -20 -9 -20 -13 1
-9 67 -52 83 -53 7 -1 -3 -4 -21 -8 -41 -8 -45 -24 -7 -31 26 -5 49 -30 27
-30 -23 0 -42 -31 -36 -57 5 -19 3 -24 -7 -21 -8 3 -14 16 -14 30 0 13 -8 33
-18 43 -10 10 -16 26 -14 36 6 22 -27 54 -48 46 -8 -4 -15 -13 -15 -22 0 -9
-9 -15 -22 -15 -16 0 -19 -3 -11 -11 8 -8 17 -8 31 0 28 15 32 14 32 -9 0 -10
9 -24 20 -30 11 -6 17 -16 14 -25 -8 -21 -14 -19 -58 19 -40 35 -98 58 -74 29
9 -11 7 -15 -10 -20 -27 -7 -19 -23 11 -23 12 -1 33 -7 46 -14 19 -10 21 -15
10 -22 -18 -12 -70 -13 -92 -2 -12 6 -26 3 -45 -10 -21 -15 -43 -19 -104 -17
-78 2 -124 19 -96 36 19 13 -19 12 -41 -1 -15 -7 -27 -2 -60 28 l-41 37 56 50
c31 28 64 57 73 66 9 9 39 36 67 61 42 37 49 48 40 60 -8 10 -23 15 -43 12
-18 -2 -34 0 -37 5 -8 12 74 23 88 12 10 -8 51 -8 179 -1 21 1 30 23 36 83 1
4 6 7 12 7 6 0 8 -9 4 -20z m6686 -30 c6 0 8 -4 4 -9 -7 -12 12 -24 25 -16 8
5 7 11 -1 21 -9 12 12 13 146 10 98 -2 161 -8 168 -15 8 -8 5 -11 -13 -11 -33
0 -20 -9 20 -14 24 -3 34 1 37 13 3 13 23 16 123 19 115 2 120 1 131 -20 7
-13 25 -39 42 -58 31 -35 24 -50 -14 -30 -15 8 -24 9 -32 1 -7 -7 -5 -12 9
-16 10 -4 27 -11 38 -17 13 -7 21 -6 26 2 5 8 17 0 36 -25 16 -20 48 -61 71
-90 24 -30 47 -64 51 -77 5 -13 6 -102 2 -198 -4 -96 -7 -167 -8 -157 -2 18
-52 25 -52 7 0 -5 9 -10 20 -10 11 0 20 -4 20 -9 0 -5 3 -16 6 -25 4 -12 0
-16 -15 -16 -13 0 -21 6 -21 17 0 12 -3 14 -11 6 -8 -8 -7 -16 2 -30 10 -17 6
-28 -32 -81 -45 -64 -71 -84 -41 -32 9 16 20 30 25 30 4 0 7 7 7 15 0 7 7 18
16 23 13 7 13 11 4 17 -7 5 -22 -3 -36 -19 -29 -30 -32 -31 -62 -10 -32 22
-27 31 19 30 25 -1 44 4 46 12 3 8 -11 12 -49 13 -29 1 -45 3 -35 6 22 6 22 7
-8 39 -22 23 -30 26 -73 22 -39 -4 -51 -1 -60 13 -6 9 -25 20 -41 24 -17 4
-34 12 -38 19 -5 7 -21 12 -38 12 -37 -1 -48 29 -13 36 13 3 32 9 42 13 16 7
18 5 14 -12 -6 -23 12 -37 60 -48 25 -5 32 -3 32 9 0 10 -9 16 -21 16 -11 0
-33 14 -47 30 -39 44 -84 42 -114 -5 -27 -41 -34 -42 -62 -12 -18 19 -19 26
-9 36 20 19 16 29 -17 36 -16 4 -30 13 -30 21 0 9 -11 14 -33 14 -25 0 -37 6
-45 23 -9 20 -11 17 -11 -20 -1 -31 -5 -43 -15 -43 -21 0 -29 17 -31 67 -2 49
-25 76 -37 43 -10 -28 -47 -36 -63 -13 -17 21 -19 53 -5 53 20 0 9 27 -15 38
-14 6 -25 18 -25 27 0 8 -4 15 -10 15 -6 0 -10 27 -10 60 0 36 -4 60 -11 60
-6 0 -7 5 -2 13 13 20 13 77 0 77 -7 0 -6 4 3 10 8 5 24 10 35 10 15 0 17 -2
6 -9 -8 -5 -10 -14 -6 -21 5 -9 4 -11 -3 -6 -8 5 -12 0 -12 -13 0 -30 29 -26
40 5 9 23 14 25 49 19 24 -4 42 -2 46 4 3 6 -2 11 -12 11 -17 1 -17 1 0 11 15
9 24 6 47 -16 16 -15 33 -24 39 -21 14 9 14 26 0 26 -6 0 -18 9 -28 21 -18 22
-91 53 -91 38 0 -5 4 -9 9 -9 4 0 6 -11 3 -25 -4 -21 -8 -24 -31 -19 -14 4
-30 12 -36 19 -5 6 -28 12 -49 13 -57 2 -58 12 -1 12 46 0 48 1 29 16 -17 14
-17 15 -1 10 10 -3 23 -6 28 -6z m-10385 -148 c93 -246 126 -336 159 -422 48
-127 95 -268 94 -282 0 -7 -5 -2 -11 12 -34 75 -50 114 -77 186 -16 43 -38
102 -49 129 -54 140 -116 304 -128 340 -7 22 -24 70 -38 108 -17 45 -21 67
-13 67 7 0 35 -62 63 -138z m10072 -112 c9 -14 37 -51 62 -83 25 -33 52 -69
60 -80 8 -12 43 -61 77 -108 35 -48 63 -91 63 -96 0 -5 19 -32 43 -61 77 -93
90 -121 91 -190 1 -43 5 -61 13 -58 6 3 17 -2 23 -10 21 -24 33 -16 26 17 -5
26 -4 28 8 16 17 -17 15 -69 -3 -91 -9 -10 -29 -16 -58 -16 -52 0 -82 27 -110
100 -20 52 -35 70 -57 70 -9 0 -16 5 -16 11 0 5 5 7 10 4 12 -8 13 8 1 21 -5
5 -12 20 -16 34 -6 22 -4 20 19 -9 14 -19 26 -41 26 -48 0 -7 6 -13 14 -13 17
0 19 52 2 62 -7 5 -5 8 6 8 9 0 18 -6 21 -12 3 -10 7 -10 17 -1 17 16 5 49
-13 34 -10 -7 -18 -5 -30 9 -9 11 -17 24 -17 29 0 17 -38 41 -55 35 -14 -6
-16 -3 -11 14 5 15 -1 28 -22 49 -16 15 -31 36 -35 46 -4 9 -23 25 -44 35 -43
19 -83 52 -65 52 18 0 15 17 -8 48 -33 45 -86 207 -81 247 1 10 28 -19 59 -65z
m-6307 -185 c10 0 13 11 12 35 -1 19 0 28 4 20 20 -49 26 -67 30 -85 14 -68
-4 -100 -38 -69 -20 18 -22 18 -34 1 -8 -12 -26 -17 -59 -17 -25 0 -46 -4 -46
-10 0 -5 19 -10 43 -10 32 0 45 -5 55 -21 9 -15 10 -24 2 -33 -7 -10 -6 -17 4
-26 19 -15 38 -3 31 19 -3 10 -1 29 4 42 9 21 10 19 10 -18 1 -24 6 -43 11
-43 6 0 10 7 10 15 0 31 18 14 24 -22 12 -73 8 -103 -13 -103 -28 0 -51 10
-51 23 0 18 -31 46 -46 40 -8 -3 -14 0 -14 6 0 6 5 11 11 11 5 0 7 5 3 12 -6
9 -9 9 -12 0 -2 -7 -11 -12 -19 -12 -13 0 -13 3 -3 15 10 12 9 16 -4 21 -9 3
-25 4 -36 1 -12 -3 -20 0 -20 7 0 6 -9 17 -20 24 -22 13 -27 3 -8 -16 6 -6 9
-15 5 -18 -7 -7 -67 46 -67 60 0 5 7 3 15 -4 11 -9 19 -9 28 -2 8 7 18 7 27 2
18 -12 30 -13 30 -2 0 14 -51 30 -86 27 -27 -2 -41 3 -63 23 -15 15 -43 41
-62 57 -19 17 -45 43 -59 59 -22 26 -23 28 -5 21 11 -4 39 -9 62 -11 23 -1 55
-10 72 -18 35 -18 89 -23 59 -5 -31 17 -20 27 37 34 51 7 57 5 79 -18 12 -13
32 -28 44 -31 11 -4 23 -13 26 -21 7 -20 32 -19 40 1 8 21 -1 31 -15 17 -7 -7
-19 -2 -40 16 -34 30 -35 38 -11 61 16 16 18 15 28 -19 6 -20 17 -36 25 -36z
m7634 -152 c-3 -10 -9 -30 -12 -45 -3 -16 -10 -28 -15 -28 -5 0 -6 -5 -2 -12
5 -7 2 -9 -9 -5 -10 4 -18 -1 -22 -14 -4 -10 -14 -19 -23 -19 -14 0 -15 -2 -2
-10 12 -8 12 -10 -4 -16 -13 -5 -16 -13 -12 -30 8 -29 -12 -70 -69 -144 -24
-30 -46 -65 -50 -77 -6 -21 -13 -23 -66 -23 l-59 0 43 58 c24 31 59 80 78 107
19 28 36 52 39 55 14 14 68 88 78 107 7 12 9 30 6 40 -5 15 -4 16 5 3 10 -13
13 -12 26 5 37 50 51 64 64 65 8 0 11 -6 6 -17z m213 -207 c31 -43 63 -87 71
-97 18 -25 0 -48 -34 -41 -20 3 -25 0 -25 -15 0 -16 -6 -19 -27 -16 -24 3 -25
2 -8 -6 14 -7 15 -10 5 -10 -20 -1 -35 10 -43 32 -5 12 -17 17 -47 17 -40 0
-77 -21 -67 -37 3 -5 -10 -9 -28 -10 -26 -1 -32 2 -28 13 7 18 -7 17 -31 -1
-22 -17 -22 -16 18 -33 17 -8 32 -9 35 -4 8 12 60 12 67 1 3 -5 14 -4 26 2 16
9 19 8 16 -3 -6 -15 -165 -21 -185 -6 -7 5 -14 5 -18 -2 -10 -17 -25 -11 -25
10 0 11 7 20 16 20 8 0 13 4 10 8 -3 5 6 25 20 45 24 36 25 36 44 17 11 -11
20 -27 20 -35 0 -8 7 -15 15 -15 8 0 15 5 15 11 0 7 8 18 18 26 16 14 16 14 0
9 -21 -6 -41 25 -31 50 5 14 2 16 -17 11 -21 -5 -20 -3 9 27 17 17 31 37 31
44 0 7 5 12 10 12 6 0 10 9 10 20 0 13 5 18 15 14 8 -4 15 -1 15 6 0 6 8 22
18 35 l17 24 18 -22 c9 -12 43 -57 75 -101z"/>
<path d="M11893 6575 c-17 -7 -36 -22 -42 -33 -9 -16 1 -29 69 -90 43 -40 83
-72 89 -72 7 0 16 12 21 26 25 65 -2 148 -56 170 -40 17 -41 17 -81 -1z"/>
<path d="M9300 6460 l0 -123 42 7 c23 4 45 12 49 17 3 6 17 16 30 23 30 14 46
72 33 117 -12 41 -47 66 -106 75 l-48 6 0 -122z"/>
<path d="M5705 6583 c-33 -8 -74 -54 -81 -91 -13 -67 28 -141 85 -155 13 -3
39 0 57 8 87 36 86 194 -1 231 -19 8 -36 13 -37 13 -2 -1 -12 -3 -23 -6z"/>
<path d="M1786 5631 c-4 -5 0 -12 6 -15 7 -3 3 -3 -9 0 -15 3 -23 1 -23 -7 0
-7 -9 -32 -21 -56 -17 -35 -25 -42 -40 -38 -25 8 -24 -3 3 -25 21 -16 21 -18
5 -34 -9 -10 -17 -27 -17 -39 0 -17 3 -19 9 -8 5 7 14 10 20 7 7 -5 11 8 12
41 l2 48 7 -55 c7 -59 4 -83 -11 -74 -5 3 -13 -6 -18 -20 -6 -13 -18 -29 -28
-35 -13 -9 -14 -11 -3 -10 33 3 50 -2 50 -15 0 -9 -8 -12 -24 -9 -15 3 -25 -1
-30 -12 -5 -13 0 -16 26 -13 24 2 33 9 39 28 4 14 21 69 38 124 17 54 31 108
31 120 0 12 4 26 9 32 4 5 11 24 14 42 6 29 4 32 -18 32 -13 0 -26 -4 -29 -9z"/>
<path d="M7980 5660 c0 -135 -2 -133 82 -110 52 15 78 52 78 110 0 58 -26 95
-78 110 -84 23 -82 25 -82 -110z"/>
<path d="M975 4745 c-12 -8 -45 -19 -74 -25 -47 -9 -82 -21 -148 -53 -13 -6
-23 -17 -23 -24 0 -8 -5 -11 -11 -8 -6 4 -8 13 -5 20 5 15 -33 7 -72 -14 -11
-6 -31 -11 -44 -11 -21 -1 -21 -2 -5 -11 19 -11 57 -3 57 12 0 5 12 9 28 9 27
-1 27 -1 -10 -24 -21 -12 -35 -25 -32 -28 10 -11 -56 -20 -96 -13 -25 4 -40 3
-40 -3 0 -6 30 -13 68 -17 37 -3 79 -8 95 -10 15 -3 27 0 27 5 0 6 -4 10 -10
10 -5 0 -10 5 -10 10 0 6 24 10 53 10 37 0 48 -3 37 -10 -13 -9 -13 -10 0 -10
8 -1 4 -6 -10 -12 -25 -11 -25 -11 -2 -15 12 -3 29 3 38 11 17 17 51 21 73 7
11 -7 10 -11 -5 -19 -17 -9 -16 -11 11 -18 17 -4 35 -11 42 -16 6 -5 24 -6 39
-2 l29 7 -35 12 c-27 9 -35 17 -35 36 0 27 -32 69 -53 69 -23 0 -7 24 21 31
25 7 27 5 27 -27 0 -40 16 -45 30 -9 5 14 16 25 25 25 9 0 20 12 25 26 9 22
13 24 25 14 12 -10 18 -10 30 0 13 11 13 15 3 22 -10 6 -10 10 2 17 21 14 5
24 -18 12 -12 -6 -29 -11 -39 -10 -15 0 -15 2 3 9 26 10 41 30 22 29 -7 0 -22
-7 -33 -14z"/>
<path d="M3070 4008 c-79 -106 -146 -195 -150 -198 -3 -3 -45 -57 -93 -120
-48 -63 -117 -154 -154 -202 -38 -48 -101 -130 -141 -182 l-73 -94 36 -48 c91
-118 381 -476 442 -543 12 -13 66 -79 120 -147 126 -158 149 -161 151 -19 3
170 22 880 27 980 2 61 7 193 10 295 3 102 8 249 11 328 l6 142 -25 0 c-20 0
-50 -34 -167 -192z"/>
<path d="M1542 4127 c-15 -18 -18 -1895 -3 -1910 19 -19 39 2 142 140 57 76
105 140 109 143 8 7 203 264 265 350 28 38 96 128 153 200 57 73 108 140 114
149 11 18 8 22 -251 340 -20 25 -45 57 -56 72 -29 40 -276 340 -303 369 -13
14 -31 37 -40 53 -9 15 -19 27 -23 27 -3 0 -19 18 -34 40 -28 41 -54 50 -73
27z"/>
<path d="M2375 3103 c-10 -15 -51 -71 -91 -123 -41 -52 -131 -170 -201 -261
-71 -92 -173 -224 -229 -295 -166 -212 -224 -292 -224 -309 0 -34 -17 -35 675
25 601 51 777 70 791 81 8 6 14 18 14 26 0 8 -42 65 -92 126 -161 194 -172
208 -198 242 -49 63 -153 191 -184 225 -17 19 -68 83 -114 141 -45 58 -92 115
-106 128 l-23 22 -18 -28z"/>
<path d="M17755 1414 c-241 -38 -441 -213 -511 -449 -12 -41 -18 -93 -18 -165
0 -176 56 -312 179 -435 123 -123 259 -179 435 -179 176 0 312 56 435 179 123
123 179 259 179 435 0 72 -6 124 -18 165 -61 206 -224 370 -426 429 -56 17
-202 28 -255 20z m95 -139 c-8 -9 -9 -15 -2 -15 6 0 14 5 17 10 10 17 28 11
21 -6 -5 -14 -4 -15 9 -4 11 9 15 9 15 1 0 -7 5 -9 12 -5 7 4 8 3 4 -5 -4 -6
-11 -9 -16 -6 -4 3 -11 -2 -14 -11 -11 -28 -7 -34 17 -25 31 12 78 2 100 -20
10 -11 22 -19 27 -19 6 0 10 -6 10 -14 0 -7 12 -26 26 -41 14 -15 30 -39 35
-52 11 -30 12 -116 1 -109 -5 3 -7 19 -4 36 6 45 -13 75 -82 126 -55 42 -64
45 -111 42 -49 -3 -50 -2 -48 23 1 22 -2 26 -18 22 -10 -3 -19 -10 -19 -15 0
-5 -6 -6 -12 -1 -7 4 -17 8 -23 10 -5 1 -21 5 -35 8 -22 6 -22 5 5 -10 16 -9
31 -18 33 -20 2 -2 -27 -1 -65 1 -47 3 -61 1 -47 -5 29 -12 38 -28 16 -27 -9
1 -18 -3 -19 -8 -1 -5 -13 -16 -27 -25 -13 -9 -44 -35 -68 -57 -61 -57 -78
-66 -54 -29 10 17 27 39 37 51 26 27 24 42 -2 19 -20 -19 -20 -19 -10 7 8 22
8 26 -5 21 -8 -3 7 17 33 44 34 34 52 46 61 40 8 -6 12 -5 12 2 0 6 9 11 21
11 11 0 17 5 14 10 -3 6 -18 7 -32 4 l-26 -7 22 22 c19 19 29 22 59 15 53 -11
94 -6 114 14 17 17 33 15 18 -3z m-108 -168 c-33 -34 -39 -47 -21 -47 5 0 8 4
5 9 -5 8 15 30 43 46 10 6 12 2 6 -14 -5 -15 -2 -21 9 -21 9 0 16 5 16 11 0 8
6 7 16 -2 15 -12 16 -11 9 10 -7 22 -6 23 39 19 26 -3 46 -1 46 5 0 5 7 3 17
-4 11 -10 17 -11 20 -3 5 16 56 -2 101 -34 28 -20 31 -26 21 -44 -6 -11 -7
-18 -1 -15 5 4 14 -5 21 -20 11 -23 10 -25 -3 -13 -14 11 -15 9 -10 -19 8 -39
-10 -42 -24 -3 -7 17 -11 21 -11 10 -1 -10 -4 -18 -7 -18 -4 0 -13 8 -20 18
-13 15 -13 14 -6 -8 5 -14 15 -58 22 -97 13 -70 22 -88 33 -60 8 18 8 -55 1
-92 -4 -19 -13 -31 -22 -31 -13 0 -13 -3 -4 -12 7 -7 12 -19 12 -27 -1 -13 -4
-12 -15 3 -15 19 -15 19 -15 -3 0 -13 -9 -39 -21 -58 -18 -29 -19 -38 -9 -63
6 -16 21 -37 32 -47 21 -18 21 -18 14 32 -4 28 -9 58 -12 68 -3 9 -1 17 5 17
6 0 11 -7 11 -15 0 -37 124 -111 189 -113 18 0 35 -3 38 -6 3 -3 -20 -29 -50
-59 -172 -165 -426 -198 -641 -84 -56 30 -186 147 -186 167 0 5 19 14 43 21
23 6 71 24 107 39 78 34 101 33 112 -5 4 -15 21 -45 38 -66 16 -21 30 -44 30
-52 0 -8 8 -21 17 -28 9 -8 14 -9 10 -2 -11 17 3 43 23 43 9 0 25 10 36 22
l19 21 -27 -17 c-26 -17 -26 -17 -21 3 8 33 -12 25 -30 -11 -14 -29 -16 -30
-16 -10 -1 12 -6 22 -12 22 -6 0 0 15 13 33 41 54 44 61 19 48 -11 -7 -21 -16
-21 -22 0 -5 -11 -2 -24 6 -16 11 -26 12 -29 5 -3 -6 -4 -5 -3 2 1 7 -8 28
-21 47 -24 35 -31 67 -13 56 11 -7 9 5 -12 89 -5 21 -7 49 -4 62 6 22 12 24
67 24 55 0 60 2 48 16 -11 13 -11 15 2 14 7 -1 23 -2 34 -1 16 2 14 4 -10 16
-26 12 -27 13 -8 14 16 1 21 6 17 16 -7 17 -69 21 -79 5 -3 -5 1 -10 10 -10 9
0 13 -4 10 -10 -3 -5 -13 -10 -22 -10 -9 0 -27 -10 -40 -22 -27 -25 -44 -17
-20 10 10 10 17 27 17 38 0 15 -2 16 -9 5 -7 -11 -11 -4 -13 25 l-3 39 -17
-35 -17 -35 5 35 c6 55 20 115 29 131 7 11 5 11 -10 -1 -10 -8 -16 -10 -12 -3
11 17 67 44 67 31 0 -6 6 -6 15 2 8 7 15 9 15 5 0 -3 15 5 33 19 44 35 47 32
9 -7z"/>
<path d="M4110 430 l0 -430 1268 0 c761 0 1273 4 1282 10 11 7 9 11 -12 19
-33 12 -72 19 -115 20 -18 1 -33 5 -33 10 0 5 41 8 95 6 80 -3 105 -9 158 -34
56 -26 73 -29 171 -30 80 -1 112 2 117 11 7 10 9 10 9 1 0 -10 223 -13 1080
-13 l1080 0 0 430 0 430 -2550 0 -2550 0 0 -430z"/>
<path d="M9840 625 l0 -175 41 0 42 0 -5 120 c-3 66 -2 120 2 120 5 0 27 -54
50 -120 40 -112 44 -120 69 -120 24 0 29 8 70 118 24 64 47 121 52 126 5 6 9
-43 9 -117 l0 -127 35 0 35 0 0 175 0 175 -58 0 -58 0 -32 -97 c-32 -97 -47
-132 -55 -123 -2 3 -21 53 -41 113 l-38 107 -59 0 -59 0 0 -175z"/>
<path d="M10330 625 l0 -175 120 0 120 0 0 35 0 35 -80 0 -80 0 0 40 0 40 70
0 70 0 0 35 0 35 -70 0 -70 0 0 30 0 30 75 0 75 0 0 35 0 35 -115 0 -115 0 0
-175z"/>
<path d="M10640 625 l0 -175 120 0 120 0 0 35 0 35 -80 0 -80 0 0 40 0 40 75
0 75 0 0 35 0 35 -75 0 -75 0 0 30 0 30 75 0 75 0 0 35 0 35 -115 0 -115 0 0
-175z"/>
<path d="M10920 765 l0 -35 50 0 50 0 0 -140 0 -140 40 0 40 0 0 140 0 140 50
0 50 0 0 35 0 35 -140 0 -140 0 0 -35z"/>
<path d="M11390 625 l0 -175 40 0 40 0 0 65 0 65 33 0 c48 0 97 17 124 42 17
16 23 32 23 65 0 25 -4 52 -10 62 -16 31 -83 51 -170 51 l-80 0 0 -175z"/>
<path d="M11720 625 l0 -175 120 0 120 0 0 35 0 35 -80 0 -80 0 0 40 0 40 75
0 75 0 0 35 0 35 -75 0 -75 0 0 30 0 30 75 0 75 0 0 35 0 35 -115 0 -115 0 0
-175z"/>
<path d="M12040 625 l0 -175 35 0 34 0 3 117 3 118 73 -118 73 -117 45 0 44 0
0 175 0 175 -37 0 -38 0 3 -115 c2 -63 0 -115 -5 -115 -4 1 -39 52 -78 115
l-69 115 -43 0 -43 0 0 -175z"/>
<path d="M12440 626 l0 -176 41 0 40 0 -7 109 c-4 60 -3 111 2 114 5 2 41 -46
79 -109 l70 -114 43 0 42 0 0 175 0 175 -35 0 -34 0 -3 -117 -3 -116 -71 114
-71 114 -46 3 -47 3 0 -175z"/>
<path d="M12865 700 l65 -99 0 -76 0 -75 40 0 40 0 0 76 0 76 65 93 c36 52 65
96 65 99 0 3 -19 6 -43 6 -42 0 -43 -1 -82 -66 -43 -75 -40 -76 -93 18 -26 47
-28 48 -74 48 l-47 0 64 -100z"/>
</g>
</svg>
